HIERARCHY
ROOT wineglass3
{
	OFFSET 0.000000 0.000000 0.000000
	CHANNELS 6 Xposition Yposition Zposition Yrotation Xrotation Zrotation
	End Site
	{
		OFFSET 0.000000 0.000000 0.000000
	}
}
MOTION
Frames: 169
Frame Time: 0.008333334
1.820821 5.807920 3.337777 123.487600 17.043490 -12.870210 
1.817778 5.810515 3.339281 122.887200 16.723140 -13.408020 
1.815041 5.813583 3.340520 122.255400 16.403500 -14.143280 
1.811632 5.816117 3.342098 121.647200 16.134590 -14.613490 
1.808591 5.818602 3.342976 120.948000 15.967010 -15.151580 
1.806868 5.821338 3.343564 119.991900 15.897420 -16.149510 
1.805903 5.822820 3.344123 119.085400 15.817050 -16.796840 
1.805700 5.822813 3.345023 118.027000 15.705470 -17.597440 
1.805847 5.822349 3.345737 116.883200 15.800270 -18.423740 
1.806899 5.822489 3.347008 115.684700 16.001430 -19.260130 
1.809528 5.822453 3.348307 114.653700 16.163510 -19.747070 
1.812710 5.822348 3.349943 113.586900 16.313990 -20.298460 
1.815236 5.822933 3.352073 112.865100 16.543060 -20.733150 
1.817934 5.825356 3.355258 112.051500 16.908040 -21.091670 
1.820569 5.827735 3.359021 111.612100 17.159450 -20.969540 
1.822407 5.831204 3.363235 111.200000 17.373080 -20.970090 
1.823655 5.835129 3.367435 111.001600 17.349140 -20.702360 
1.824434 5.838419 3.372048 110.823000 17.271920 -20.581970 
1.824678 5.841089 3.376151 110.646500 17.081090 -20.480040 
1.825252 5.843199 3.380152 110.393300 16.853080 -20.326290 
1.826585 5.844638 3.383389 110.084400 16.661720 -20.430690 
1.827707 5.845342 3.385623 109.749800 16.529030 -20.611600 
1.829587 5.845168 3.387585 109.475300 16.410190 -20.939240 
1.831665 5.844589 3.389138 109.223300 16.352250 -21.423250 
1.832816 5.844771 3.390635 108.939300 16.218440 -21.827820 
1.833455 5.845409 3.393148 108.548700 16.022670 -22.144070 
1.834147 5.845642 3.395746 108.075100 15.734250 -22.475950 
1.834580 5.845420 3.399041 107.433300 15.504770 -22.628690 
1.836133 5.844767 3.401393 106.752000 15.191120 -23.090670 
1.838055 5.842453 3.402504 105.923100 14.875750 -23.597440 
1.841868 5.838674 3.401481 105.177200 14.677470 -24.018340 
1.845045 5.834296 3.400454 104.742000 14.608010 -24.269590 
1.842257 5.834685 3.401230 104.715900 14.421720 -24.487920 
1.840135 5.837971 3.403596 104.659900 14.094350 -24.185090 
1.837067 5.839804 3.405713 104.777000 14.012280 -23.794620 
1.835943 5.839908 3.406974 104.921700 13.921740 -23.547730 
1.834194 5.837569 3.406801 104.874000 13.780400 -23.181180 
1.834075 5.835655 3.405887 104.859600 13.785560 -22.994720 
1.835051 5.832772 3.406733 104.858000 13.801150 -22.596530 
1.836074 5.830322 3.407400 104.655700 13.815720 -22.601290 
1.838142 5.827401 3.407907 104.431100 13.675000 -22.551510 
1.840449 5.823628 3.407614 104.069900 13.562750 -22.598850 
1.843634 5.819449 3.406386 103.755600 13.286550 -22.651250 
1.847102 5.814224 3.404540 103.338400 13.047720 -22.567660 
1.851622 5.808509 3.402174 102.805700 12.574780 -22.904790 
1.855620 5.802750 3.399945 102.265500 11.997310 -23.007390 
1.859221 5.797333 3.398341 101.646300 11.292270 -23.128200 
1.862958 5.792566 3.397306 101.002400 10.511780 -23.043700 
1.868174 5.789035 3.397727 100.356500 9.603113 -22.929720 
1.872363 5.786128 3.398437 99.585730 8.797457 -22.899600 
1.876662 5.783400 3.398900 98.620800 7.815449 -22.836820 
1.880413 5.781111 3.398880 97.826230 7.044208 -22.906460 
1.884427 5.778076 3.398329 97.059410 6.277040 -22.712950 
1.888133 5.774287 3.396855 96.238910 5.556566 -22.867710 
1.890892 5.769623 3.394057 95.262020 4.721511 -22.740330 
1.894482 5.763951 3.389615 94.346370 3.861095 -22.888150 
1.896462 5.756260 3.383682 93.218830 3.032054 -22.867830 
1.897035 5.746649 3.377235 92.140750 2.043602 -22.949490 
1.896555 5.736000 3.370141 91.061570 1.093516 -22.806640 
1.894374 5.724586 3.363044 89.907230 0.024996 -22.690700 
1.890522 5.713638 3.356147 88.875910 -1.016113 -22.554750 
1.885207 5.702894 3.349550 88.046390 -1.902161 -22.000850 
1.880189 5.693190 3.344506 87.248920 -2.755096 -21.792850 
1.873658 5.684379 3.339232 86.423310 -3.388397 -21.401280 
1.868475 5.676442 3.334276 85.595690 -4.236481 -20.907840 
1.863774 5.669105 3.330673 84.539130 -4.882538 -20.317570 
1.859554 5.662622 3.328429 83.223310 -5.485992 -19.637360 
1.858096 5.658679 3.327245 81.709050 -6.022308 -18.914610 
1.856594 5.655603 3.326545 79.969680 -6.498169 -18.147800 
1.855785 5.654336 3.327115 78.430750 -6.857819 -17.095670 
1.855776 5.653025 3.327111 76.902340 -6.997925 -16.342900 
1.855617 5.652190 3.326678 75.781580 -7.097229 -15.639530 
1.856031 5.651286 3.325919 74.806430 -7.052216 -14.988130 
1.855883 5.649668 3.324679 73.792880 -6.997406 -14.367160 
1.855894 5.648744 3.321852 72.902540 -7.137726 -13.755550 
1.856385 5.646715 3.318236 71.946460 -7.075684 -13.155980 
1.856202 5.643895 3.314615 70.907620 -7.309052 -12.713590 
1.856666 5.640883 3.310811 69.787540 -7.407196 -12.124110 
1.856787 5.638409 3.306779 68.438390 -7.570465 -11.516050 
1.856276 5.635913 3.303318 67.222340 -7.892365 -10.964900 
1.854845 5.632636 3.300469 66.052560 -8.379852 -10.266820 
1.852334 5.630304 3.297803 64.861020 -8.458099 -9.721619 
1.848499 5.628518 3.296194 63.889690 -8.823486 -9.082611 
1.843981 5.627017 3.294889 63.167500 -9.047913 -8.656006 
1.840377 5.625853 3.294643 62.533060 -9.213196 -8.305634 
1.836900 5.624424 3.294877 61.949430 -9.344757 -8.012756 
1.833611 5.622687 3.295656 61.403600 -9.532013 -7.521301 
1.830764 5.622036 3.297175 60.970950 -9.756714 -7.092743 
1.828439 5.621203 3.298981 60.629380 -9.785126 -6.763336 
1.826612 5.620943 3.300117 60.358540 -9.859070 -6.466278 
1.825082 5.620480 3.301141 60.145750 -9.932343 -6.241364 
1.822233 5.618364 3.301914 59.953350 -10.114650 -5.994720 
1.818700 5.615084 3.302823 59.827420 -10.210170 -5.614258 
1.814525 5.611564 3.302954 59.705180 -10.252440 -5.396698 
1.810763 5.606945 3.303212 59.639870 -10.365200 -5.240204 
1.806499 5.602241 3.303291 59.533270 -10.609070 -4.779175 
1.802955 5.597434 3.303141 59.494380 -10.875000 -4.535950 
1.800356 5.592411 3.303787 59.393040 -10.994290 -4.120880 
1.798707 5.587353 3.304254 59.260290 -11.315520 -3.875549 
1.797003 5.582679 3.305347 58.976510 -11.473480 -3.680389 
1.795662 5.577601 3.305485 58.675350 -11.802920 -3.301239 
1.794907 5.572040 3.306542 58.450120 -12.067200 -3.162720 
1.793939 5.566848 3.307269 58.143410 -12.407230 -3.016876 
1.791147 5.560350 3.307706 57.834610 -12.829800 -2.841522 
1.786562 5.553467 3.309600 57.530880 -13.427340 -2.279175 
1.780019 5.546867 3.312889 57.114200 -13.987120 -1.378906 
1.772289 5.540657 3.318212 56.681200 -14.527340 -0.406738 
1.764295 5.534934 3.324545 56.262170 -15.003970 0.718882 
1.756790 5.530323 3.331765 55.671080 -15.319850 1.995052 
1.751398 5.526433 3.337103 55.535660 -15.627350 2.969327 
1.748351 5.524316 3.339477 55.356180 -15.941220 3.314564 
1.744771 5.521611 3.338792 54.782280 -16.382230 3.710168 
1.738543 5.518634 3.332884 53.886730 -16.852050 3.726431 
1.731498 5.515792 3.324804 53.036950 -17.555020 3.589558 
1.723753 5.514217 3.314896 52.050460 -18.283420 3.073750 
1.716678 5.513859 3.302677 51.259590 -18.988980 2.114454 
1.711397 5.515021 3.291340 50.600960 -19.428250 1.378244 
1.706742 5.517169 3.279793 49.980340 -19.614070 0.234536 
1.703553 5.519223 3.270626 49.171680 -19.543820 -0.787201 
1.700042 5.521735 3.261792 48.486310 -19.576390 -1.796875 
1.696313 5.524017 3.254600 47.770610 -19.647130 -2.351166 
1.690321 5.526875 3.245991 47.113280 -19.605530 -3.137787 
1.683040 5.529450 3.237967 46.387740 -19.703090 -3.613586 
1.674598 5.531938 3.230340 45.781240 -19.808470 -3.995819 
1.666387 5.535447 3.222602 44.998010 -20.026950 -4.297211 
1.657748 5.539157 3.215591 44.089890 -19.967100 -4.572357 
1.650584 5.543254 3.208587 43.038880 -20.123290 -4.837494 
1.643652 5.547586 3.201610 41.848760 -20.100400 -5.251892 
1.638137 5.551933 3.195731 40.658600 -20.280640 -5.619415 
1.632729 5.557848 3.190282 39.331880 -20.364070 -5.859894 
1.626412 5.563703 3.187115 37.884400 -20.586150 -5.795715 
1.620636 5.570160 3.184776 36.646220 -20.944850 -5.828735 
1.614123 5.577436 3.183371 35.226970 -21.233950 -5.893463 
1.608489 5.584022 3.183330 34.087040 -21.789250 -5.614838 
1.602536 5.589738 3.185003 32.936120 -22.249080 -5.489410 
1.597850 5.596183 3.187641 31.962080 -22.701690 -5.268463 
1.594057 5.601606 3.193094 30.995140 -22.992430 -4.986725 
1.590972 5.607380 3.199653 29.890340 -23.156740 -4.608063 
1.590359 5.612678 3.207943 28.992250 -23.231410 -4.260468 
1.590824 5.617777 3.218475 27.955860 -23.039060 -3.791290 
1.593028 5.622339 3.228272 27.043080 -22.893680 -3.604614 
1.596483 5.627227 3.239486 26.194410 -22.508760 -3.514130 
1.600527 5.632087 3.250894 25.457900 -22.173830 -3.338013 
1.607268 5.636050 3.263652 24.752410 -21.580870 -3.207672 
1.614488 5.640200 3.276917 23.929900 -20.986240 -2.626770 
1.624173 5.645041 3.291958 23.158460 -20.402650 -2.589417 
1.635472 5.648440 3.307500 22.176420 -19.729920 -2.434387 
1.648289 5.650548 3.324573 21.303540 -19.155670 -2.226105 
1.662291 5.651695 3.341745 20.408180 -18.414150 -2.336334 
1.677188 5.652878 3.359644 19.899890 -17.966770 -2.682129 
1.689757 5.652817 3.373420 18.961500 -17.668180 -2.968781 
1.701077 5.654055 3.382842 17.995890 -17.408570 -3.380005 
1.710774 5.657321 3.389557 17.335260 -17.529330 -3.796326 
1.720318 5.661978 3.396358 16.785910 -17.505580 -4.123657 
1.729779 5.666071 3.401730 16.324310 -17.249390 -4.849152 
1.737147 5.671472 3.405351 16.169130 -17.259740 -5.403778 
1.742449 5.674980 3.406903 16.873860 -17.160860 -6.042786 
1.749205 5.678456 3.407411 17.363880 -16.730990 -6.683319 
1.754467 5.682456 3.408221 17.998570 -16.270690 -6.792572 
1.758893 5.685279 3.408776 18.626330 -15.898160 -7.235535 
1.761863 5.686167 3.410097 19.019780 -15.556210 -7.442657 
1.764792 5.685386 3.410927 19.302120 -15.412810 -7.541473 
1.767462 5.682002 3.411605 19.377160 -15.324070 -7.526917 
1.770095 5.678406 3.411410 19.305610 -15.478090 -7.669800 
1.773193 5.675017 3.411670 19.244820 -15.432740 -7.760132 
1.776160 5.673059 3.412626 18.975690 -15.369600 -7.624420 
1.779733 5.671266 3.414215 18.501840 -15.410740 -7.282043 
1.783389 5.669924 3.415575 17.898210 -15.314180 -7.055206 
1.786041 5.668858 3.417186 17.576670 -15.345060 -6.827118 
